<svg width="67" height="67" viewBox="0 0 67 67" fill="none" xmlns="http://www.w3.org/2000/svg">
<g clip-path="url(#clip0)">
<path d="M65.4213 19.6816C65.2695 16.1246 64.713 13.6792 63.9159 11.5603C63.0935 9.31106 61.8282 7.29733 60.1706 5.62331C58.551 3.92324 56.5899 2.60221 54.4391 1.76546C52.3771 0.941476 50.0236 0.366271 46.5823 0.209444C43.1153 0.0393346 42.0147 0 33.2214 0C24.4281 0 23.3275 0.0393346 19.8733 0.196162C16.432 0.35299 14.0661 0.928705 12.0166 1.75218C9.84 2.60221 7.89176 3.90996 6.27218 5.62331C4.62739 7.29733 3.34981 9.32434 2.53977 11.5475C1.74259 13.6792 1.18609 16.1113 1.03436 19.6683C0.869782 23.2519 0.831726 24.3895 0.831726 33.4783C0.831726 42.5672 0.869782 43.7048 1.02151 47.2751C1.17324 50.832 1.73023 53.2774 2.52742 55.3964C3.34981 57.6456 4.62739 59.6593 6.27218 61.3334C7.89176 63.0334 9.85285 64.3545 12.0037 65.1912C14.0661 66.0152 16.4192 66.5904 19.861 66.7472C23.3146 66.9046 24.4157 66.9434 33.209 66.9434C42.0023 66.9434 43.103 66.9046 46.5571 66.7472C49.9984 66.5904 52.3643 66.0152 54.4138 65.1912C58.7665 63.4518 62.2078 59.8948 63.8906 55.3964C64.6873 53.2647 65.2443 50.832 65.3961 47.2751C65.5478 43.7048 65.5858 42.5672 65.5858 33.4783C65.5858 24.3895 65.573 23.2519 65.4213 19.6816ZM59.5889 47.0135C59.4495 50.2829 58.9182 52.0483 58.4754 53.2253C57.3871 56.1417 55.1478 58.4563 52.3262 59.5812C51.1875 60.0389 49.4671 60.588 46.3164 60.7316C42.9003 60.8889 41.8758 60.9277 33.2342 60.9277C24.5927 60.9277 23.5553 60.8889 20.1516 60.7316C16.9885 60.588 15.2805 60.0389 14.1418 59.5812C12.7377 59.0448 11.4596 58.1948 10.4222 57.0832C9.34676 55.9976 8.52437 54.6899 8.00543 53.2386C7.5626 52.0616 7.03131 50.2829 6.89243 47.0268C6.74021 43.4959 6.70265 42.4364 6.70265 33.5044C6.70265 24.5724 6.74021 23.5001 6.89243 19.9825C7.03131 16.7131 7.5626 14.9477 8.00543 13.7707C8.52437 12.3189 9.34676 10.9984 10.4351 9.9256C11.4848 8.81401 12.75 7.96398 14.1546 7.42811C15.2933 6.9704 17.0142 6.42124 20.1644 6.27719C23.5805 6.12036 24.6055 6.08103 33.2466 6.08103C41.901 6.08103 42.9255 6.12036 46.3293 6.27719C49.4923 6.42124 51.2004 6.9704 52.3391 7.42811C53.7432 7.96398 55.0213 8.81401 56.0586 9.9256C57.1341 11.0111 57.9565 12.3189 58.4754 13.7707C58.9182 14.9477 59.4495 16.7259 59.5889 19.9825C59.7406 23.5134 59.7787 24.5724 59.7787 33.5044C59.7787 42.4364 59.7406 43.4826 59.5889 47.0135Z" fill="white"/>
<path d="M33.2214 16.2814C24.0362 16.2814 16.5837 23.9839 16.5837 33.4783C16.5837 42.9728 24.0362 50.6752 33.2214 50.6752C42.4071 50.6752 49.8591 42.9728 49.8591 33.4783C49.8591 23.9839 42.4071 16.2814 33.2214 16.2814ZM33.2214 44.6335C27.2625 44.6335 22.429 39.638 22.429 33.4783C22.429 27.3186 27.2625 22.3231 33.2214 22.3231C39.1808 22.3231 44.0139 27.3186 44.0139 33.4783C44.0139 39.638 39.1808 44.6335 33.2214 44.6335Z" fill="white"/>
<path d="M54.4015 15.6015C54.4015 17.8186 52.6623 19.6162 50.5169 19.6162C48.3719 19.6162 46.6328 17.8186 46.6328 15.6015C46.6328 13.384 48.3719 11.5869 50.5169 11.5869C52.6623 11.5869 54.4015 13.384 54.4015 15.6015Z" fill="white"/>
</g>
<defs>
<clipPath id="clip0">
<rect width="65.8462" height="66.9436" fill="white" transform="translate(0.717957)"/>
</clipPath>
</defs>
</svg>
