<svg width="67" height="66" viewBox="0 0 67 66" fill="none" xmlns="http://www.w3.org/2000/svg">
<g clip-path="url(#clip0)">
<path d="M1.59898 31.8451L16.7713 37.5079L22.6439 56.3941C23.0196 57.6037 24.4987 58.0508 25.4805 57.2481L33.9378 50.3536C34.8243 49.6313 36.087 49.5953 37.0135 50.2678L52.2674 61.3425C53.3176 62.1058 54.8055 61.5303 55.0689 60.2613L66.2432 6.51084C66.5308 5.12456 65.1686 3.96808 63.8486 4.47861L1.5812 28.4995C0.0445727 29.0921 0.0579614 31.2677 1.59898 31.8451ZM21.6974 34.4935L51.3497 16.2306C51.8826 15.9034 52.4309 16.6239 51.9733 17.0484L27.5015 39.7961C26.6414 40.5968 26.0865 41.6683 25.9294 42.8314L25.0957 49.009C24.9853 49.8339 23.8267 49.9157 23.5991 49.1175L20.393 37.8523C20.0258 36.5674 20.5609 35.195 21.6974 34.4935Z" fill="white"/>
</g>
<defs>
<clipPath id="clip0">
<rect width="65.8462" height="65.8462" fill="white" transform="translate(0.435913 0.0974426)"/>
</clipPath>
</defs>
</svg>
