<svg width="66" height="66" viewBox="0 0 66 66" fill="none" xmlns="http://www.w3.org/2000/svg">
<g clip-path="url(#clip0)">
<path d="M59.7675 14.5611C52.8559 14.5611 47.2329 8.93808 47.2329 2.02653C47.2329 0.96101 46.3689 0.0974426 45.3039 0.0974426H34.9722C33.9067 0.0974426 33.0431 0.96101 33.0431 2.02653V44.385C33.0431 48.4482 29.7375 51.7538 25.6739 51.7538C21.6108 51.7538 18.3052 48.4482 18.3052 44.385C18.3052 40.3214 21.6108 37.0158 25.6739 37.0158C26.7394 37.0158 27.603 36.1523 27.603 35.0868V24.7551C27.603 23.6901 26.7394 22.826 25.6739 22.826C13.7864 22.826 4.11536 32.4976 4.11536 44.385C4.11536 56.2725 13.7864 65.9436 25.6739 65.9436C37.5614 65.9436 47.2329 56.2725 47.2329 44.385V25.6352C51.0725 27.6824 55.3447 28.7509 59.7675 28.7509C60.833 28.7509 61.6966 27.8873 61.6966 26.8218V16.4902C61.6966 15.4251 60.833 14.5611 59.7675 14.5611ZM57.8384 24.8129C53.72 24.4702 49.8091 23.0315 46.4302 20.601C45.8429 20.178 45.0683 20.1198 44.4237 20.4503C43.7797 20.7799 43.3748 21.443 43.3748 22.1669V44.385C43.3748 54.145 35.4339 62.0854 25.6739 62.0854C15.9139 62.0854 7.97353 54.145 7.97353 44.385C7.97353 35.2766 14.8891 27.7527 23.7448 26.7887V33.3234C18.47 34.2408 14.447 38.8515 14.447 44.385C14.447 50.5757 19.4832 55.6124 25.6739 55.6124C31.8651 55.6124 36.9013 50.5757 36.9013 44.385V3.95562H43.4873C44.371 11.4559 50.3381 17.4231 57.8384 18.3067V24.8129Z" fill="white"/>
</g>
<defs>
<clipPath id="clip0">
<rect width="65.8462" height="65.8462" fill="white" transform="translate(0 0.0974426)"/>
</clipPath>
</defs>
</svg>
