<svg width="66" height="66" viewBox="0 0 66 66" fill="none" xmlns="http://www.w3.org/2000/svg">
<g clip-path="url(#clip0)">
<path d="M65.6509 48.2923C65.5712 48.1205 65.4969 47.9779 65.4278 47.8638C64.2854 45.8062 62.1022 43.2807 58.8797 40.2865L58.8116 40.218L58.7775 40.1844L58.743 40.1499H58.7085C57.2459 38.7557 56.3197 37.8182 55.9319 37.3382C55.2222 36.424 55.0632 35.4985 55.4511 34.5608C55.7251 33.8524 56.7544 32.3562 58.5366 30.0702C59.4741 28.8588 60.2165 27.8878 60.7648 27.1563C64.7191 21.8992 66.4335 18.5399 65.9075 17.077L65.7033 16.7351C65.566 16.5293 65.2118 16.341 64.6411 16.1693C64.069 15.998 63.3379 15.9696 62.4463 16.0838L52.5729 16.152C52.413 16.0954 52.1846 16.1006 51.887 16.1693C51.5898 16.238 51.4412 16.2725 51.4412 16.2725L51.2693 16.3583L51.1329 16.4615C51.0186 16.5297 50.8929 16.6496 50.7556 16.8211C50.6191 16.992 50.5049 17.1925 50.4137 17.421C49.3387 20.1866 48.1166 22.7578 46.7449 25.1346C45.8992 26.5519 45.1225 27.7802 44.4132 28.8202C43.7049 29.8599 43.1106 30.6258 42.631 31.1168C42.1507 31.6083 41.7172 32.0021 41.3279 32.2995C40.9392 32.5971 40.6425 32.7228 40.437 32.6768C40.2311 32.6308 40.0372 32.5852 39.8536 32.5395C39.5338 32.3337 39.2766 32.0538 39.0827 31.6996C38.8879 31.3454 38.7568 30.8995 38.6882 30.3624C38.62 29.8249 38.5797 29.3626 38.5681 28.9739C38.5574 28.5857 38.5624 28.0366 38.5855 27.3281C38.6093 26.6193 38.62 26.1397 38.62 25.8883C38.62 25.0196 38.6369 24.0769 38.6709 23.0598C38.7055 22.0427 38.7335 21.2369 38.7569 20.6432C38.7802 20.0489 38.791 19.4202 38.791 18.7574C38.791 18.0945 38.7506 17.5747 38.6709 17.1974C38.5921 16.8206 38.4712 16.4549 38.3119 16.1003C38.1516 15.746 37.9169 15.472 37.6091 15.2775C37.3006 15.0832 36.917 14.929 36.4606 14.8145C35.2491 14.5403 33.7065 14.392 31.8319 14.369C27.581 14.3234 24.8496 14.5979 23.6382 15.1921C23.1583 15.4432 22.724 15.7863 22.3356 16.2202C21.9241 16.7232 21.8667 16.9977 22.1638 17.0429C23.5353 17.2484 24.5063 17.7398 25.0778 18.5169L25.2837 18.9286C25.4439 19.2257 25.6038 19.7516 25.7639 20.5057C25.9237 21.2598 26.0269 22.094 26.0722 23.0078C26.1863 24.6765 26.1863 26.105 26.0722 27.2933C25.9578 28.4821 25.8497 29.4075 25.7466 30.0704C25.6434 30.7332 25.4893 31.2703 25.2837 31.6816C25.0778 32.093 24.9407 32.3444 24.8721 32.4357C24.8035 32.5269 24.7463 32.5844 24.7009 32.607C24.4039 32.7209 24.0949 32.7789 23.7751 32.7789C23.4549 32.7789 23.0666 32.6187 22.6095 32.2985C22.1526 31.9784 21.6784 31.5387 21.187 30.9786C20.6955 30.4185 20.1412 29.6357 19.5239 28.6301C18.907 27.6246 18.267 26.4362 17.6042 25.0649L17.0558 24.0704C16.7129 23.4306 16.2446 22.499 15.6504 21.2765C15.0557 20.0535 14.5302 18.8705 14.0733 17.7277C13.8906 17.2478 13.6162 16.8824 13.2506 16.6309L13.079 16.5278C12.9649 16.4365 12.7818 16.3396 12.5306 16.2363C12.279 16.1332 12.0165 16.0592 11.742 16.0137L2.3484 16.0819C1.38849 16.0819 0.737182 16.2994 0.394237 16.7337L0.256987 16.9391C0.188422 17.0536 0.153839 17.2363 0.153839 17.4879C0.153839 17.7394 0.222404 18.048 0.359654 18.4134C1.73095 21.6363 3.22221 24.7445 4.83343 27.7386C6.44465 30.7326 7.84477 33.1444 9.03294 34.9717C10.2214 36.8004 11.4327 38.5263 12.667 40.1486C13.9013 41.7714 14.7183 42.8114 15.1181 43.2683C15.5183 43.7261 15.8326 44.0683 16.0612 44.2968L16.9184 45.1195C17.4669 45.6681 18.2724 46.3252 19.3352 47.0907C20.3983 47.8567 21.5752 48.6108 22.8665 49.3542C24.1581 50.0964 25.6606 50.702 27.375 51.1705C29.0891 51.6394 30.7575 51.8275 32.3803 51.7368H36.323C37.1226 51.6677 37.7284 51.4163 38.1402 50.9823L38.2766 50.8105C38.3683 50.6741 38.4542 50.4621 38.5334 50.1769C38.6136 49.8913 38.6535 49.5766 38.6535 49.2342C38.6301 48.2516 38.7049 47.366 38.8759 46.5776C39.0468 45.7894 39.2415 45.1951 39.4593 44.7949C39.6771 44.395 39.9227 44.0576 40.1962 43.7841C40.4702 43.5099 40.6654 43.3439 40.78 43.2867C40.8938 43.2292 40.9847 43.1902 41.0533 43.1667C41.6018 42.984 42.2473 43.161 42.9909 43.6986C43.7338 44.2357 44.4306 44.8989 45.0824 45.6871C45.7338 46.476 46.5165 47.3611 47.4305 48.3437C48.3452 49.3267 49.1449 50.0573 49.8303 50.538L50.5157 50.9494C50.9735 51.2239 51.5677 51.4754 52.2993 51.7039C53.0295 51.9323 53.6692 51.9894 54.2186 51.8752L62.9948 51.7383C63.8628 51.7383 64.5383 51.5946 65.0174 51.3094C65.4975 51.0237 65.7827 50.709 65.8746 50.3667C65.9664 50.024 65.9713 49.6352 65.8921 49.2005C65.8108 48.7669 65.7307 48.4637 65.6509 48.2923Z" fill="white"/>
</g>
<defs>
<clipPath id="clip0">
<rect width="65.8462" height="65.8462" fill="white" transform="translate(0.153839 0.0974426)"/>
</clipPath>
</defs>
</svg>
